<svg xmlns="http://www.w3.org/2000/svg" class="ionicon" viewBox="0 0 512 512" fill="#fff">
  <path d="M100.28 448H9.37V150.09h90.91zM54.85 103.56c-29.42 0-53.35-23.93-53.35-53.35 0-29.43 23.93-53.36 53.35-53.36 29.42 0 53.35 23.93 53.35 53.36 0 29.42-23.93 53.35-53.35 53.35zm396.3 344.44h-91.4V325.3c0-29.61-10.54-49.8-37-49.8-20.13 0-32.03 13.56-37.25 26.68-1.91 4.66-2.4 11.14-2.4 17.68v128.14h-90.91V150.09h90.91v65.39h1.3c12.5-19.05 34.68-46.75 84.24-46.75 61.66 0 107.86 39.36 107.86 124.3v149.85z"/>
</svg>
